<svg width="20" height="20" viewBox="0 0 20 20" fill="none" xmlns="http://www.w3.org/2000/svg">
<g clip-path="url(#clip0_1_600)">
<path d="M3.33333 18.3333C3.33333 16.5651 4.03571 14.8694 5.28595 13.6192C6.5362 12.369 8.23189 11.6666 10 11.6666C11.7681 11.6666 13.4638 12.369 14.714 13.6192C15.9643 14.8694 16.6667 16.5651 16.6667 18.3333H15C15 17.0072 14.4732 15.7354 13.5355 14.7977C12.5979 13.86 11.3261 13.3333 10 13.3333C8.67392 13.3333 7.40215 13.86 6.46446 14.7977C5.52678 15.7354 5 17.0072 5 18.3333H3.33333ZM10 10.8333C7.2375 10.8333 5 8.59575 5 5.83325C5 3.07075 7.2375 0.833252 10 0.833252C12.7625 0.833252 15 3.07075 15 5.83325C15 8.59575 12.7625 10.8333 10 10.8333ZM10 9.16658C11.8417 9.16658 13.3333 7.67492 13.3333 5.83325C13.3333 3.99159 11.8417 2.49992 10 2.49992C8.15833 2.49992 6.66667 3.99159 6.66667 5.83325C6.66667 7.67492 8.15833 9.16658 10 9.16658Z" fill="black"/>
</g>
<defs>
<clipPath id="clip0_1_600">
<rect width="20" height="20" fill="white"/>
</clipPath>
</defs>
</svg>
