<svg width="24" height="24" viewBox="0 0 24 24" fill="none" xmlns="http://www.w3.org/2000/svg">
<g clip-path="url(#clip0_1_776)">
<path d="M12 0C18.6274 0 24 5.37258 24 12C24 18.6274 18.6274 24 12 24C5.37258 24 0 18.6274 0 12C0 5.43886 5.26567 0.10758 11.8016 0.00161L12 0ZM12 17.25C11.1461 17.25 10.3085 17.3523 9.5014 17.5492L9.5524 17.8031C10.1634 20.7296 11.1927 22.5 12 22.5C12.9301 22.5 13.9161 20.5221 14.494 17.5486C13.6851 17.3508 12.8496 17.25 12 17.25ZM22.4736 12.7501L16.4923 12.7503C16.4096 16.7478 15.6668 20.2168 14.4651 22.2089C18.7908 21.1682 22.0734 17.4498 22.4615 12.9054L22.4736 12.7501ZM8.064 18.0131L7.9891 18.0429C6.9207 18.4845 5.92969 19.1022 5.05488 19.8747C6.3119 20.9845 7.8361 21.7974 9.5187 22.2051C8.9059 21.174 8.4155 19.7404 8.064 18.0131ZM14.9913 12.7504L1.52638 12.7501C1.68888 15.0522 2.59347 17.1493 4.00237 18.8038C6.181 16.8537 9.0041 15.75 12 15.75C12.9303 15.75 13.8468 15.856 14.7364 16.0635C14.8741 15.0328 14.964 13.918 14.9913 12.7504ZM9.5349 1.79112L9.4767 1.80516C5.13073 2.87722 1.85052 6.6557 1.52636 11.2502L7.5077 11.2501C7.5904 7.2524 8.3332 3.78323 9.5349 1.79112ZM19.998 5.19653L19.8629 5.31531C17.6997 7.1937 14.9315 8.25 12 8.25C11.0699 8.25 10.1534 8.144 9.2636 7.9364C9.1259 8.967 9.036 10.0821 9.0087 11.25L22.4736 11.2502C22.316 9.0159 21.4593 6.9746 20.1209 5.34366L19.998 5.19653ZM12 1.5C11.0698 1.5 10.0838 3.47807 9.506 6.4517C10.3151 6.6493 11.1506 6.75 12 6.75C12.8539 6.75 13.6915 6.6478 14.499 6.4508L14.4424 6.1719C13.8306 3.25936 12.8045 1.5 12 1.5ZM14.481 1.79481L14.5352 1.88801C15.1231 2.91145 15.5949 4.31108 15.9361 5.98735C17.0324 5.54445 18.0492 4.9162 18.9454 4.12491C17.6883 3.01561 16.1638 2.20249 14.481 1.79481Z" fill="#021412"/>
</g>
<defs>
<clipPath id="clip0_1_776">
<rect width="24" height="24" fill="white"/>
</clipPath>
</defs>
</svg>
