<svg width="139" height="32" viewBox="0 0 139 32" fill="none" xmlns="http://www.w3.org/2000/svg">
<path d="M2.67281 5.3336H5.34562C11.2349 5.3336 16.0072 10.1104 16.0072 16C16.0072 21.8312 11.3296 26.5712 5.52204 26.6656L5.34562 26.6672V24C9.7562 24 13.3336 20.4192 13.3336 16C13.3336 11.6248 9.82757 8.072 5.47713 8.0008L5.34642 8H0V0H5.34642C14.2045 0 21.3849 7.1632 21.3849 16C21.3849 24.748 14.3472 31.8568 5.61186 31.9976L5.34642 32H0V18.6664H5.34642C6.82276 18.6664 8.01923 17.4728 8.01923 16C8.01923 14.552 6.86286 13.3736 5.421 13.3344L5.34642 13.3336H0V10.6672H5.34642C8.29799 10.669 10.6903 13.0555 10.692 16C10.6907 18.9093 8.35365 21.2813 5.43784 21.3328L5.34562 21.3336H2.67281V29.3336H5.34562C12.6402 29.332 18.5868 23.4969 18.7089 16.2208L18.7105 16C18.7089 8.7232 12.8602 2.79103 5.56695 2.6688L5.34562 2.6672H2.67281V5.3336ZM37.4233 9.3336C40.3755 9.33492 42.7684 11.7221 42.7698 14.6672C42.7685 17.5765 40.4314 19.9485 37.5156 20L37.4233 20.0008H34.7505V22.6672H32.0769V17.3336H32.0809L32.0769 14.0552L32.0849 9.3328L37.4233 9.3336ZM37.4233 12H34.7529L34.7505 15.2136L34.7529 17.3328H37.4233C38.85 17.3328 40.0152 16.2184 40.0921 14.8152L40.0954 14.7408L40.0962 14.6664C40.0962 13.2184 38.9398 12.04 37.4979 12.0008L37.4233 12ZM64.9558 9.3336C67.908 9.33492 70.3009 11.7221 70.3022 14.6672C70.3033 16.4485 69.4119 18.1125 67.9269 19.1016L69.368 22.6672H66.4794L65.3976 19.9824L65.1041 19.9984L64.9558 20H62.283V22.6664H59.6101V17.3328H59.6142L59.611 14.0552L59.619 9.3328L64.9558 9.3336ZM64.9558 12H62.2854L62.283 15.2136L62.2854 17.3328H64.9558C66.3824 17.3328 67.5476 16.2184 67.6246 14.8152L67.6278 14.7408L67.6286 14.6664C67.6286 13.2184 66.4722 12.04 65.0303 12.0008L64.9558 12ZM56.1346 22.6672H53.4618V19.9968L50.1755 20L48.1154 19.9968V22.6672H45.4426V14.6672C45.4439 11.7221 47.8368 9.33492 50.789 9.3336C53.7053 9.33489 56.083 11.6664 56.1346 14.5752L56.1354 14.6672L56.1346 22.6672ZM50.7882 12C49.3367 12 48.1555 13.1536 48.1162 14.592L48.1154 14.6664V17.3304L51.3367 17.3328L53.461 17.3304V14.6664C53.461 13.2432 52.3439 12.0808 50.9374 12.004L50.8628 12.0008L50.7882 12ZM100.24 22.6672V9.3336H108.26V12H102.913V14.6664H105.586V17.3328H102.913V20H108.26V22.6664L100.24 22.6672ZM117.616 9.3336C120.568 9.33492 122.961 11.7221 122.962 14.6672C122.963 16.4485 122.072 18.1125 120.587 19.1016L122.028 22.6672H119.14L118.058 19.9824L117.765 19.9984L117.616 20.0008H114.944V22.6672H112.269V17.3336H112.273L112.269 14.0552L112.277 9.3328L117.616 9.3336ZM117.616 12H114.945L114.943 15.2136L114.945 17.3328H117.616C119.042 17.3328 120.207 16.2184 120.284 14.8152L120.288 14.7408L120.288 14.6664C120.288 13.2184 119.132 12.04 117.69 12.0008L117.616 12ZM132.317 9.3336C128.627 9.3336 125.635 12.3184 125.635 16C125.635 19.6816 128.627 22.6664 132.317 22.6664C136.008 22.6664 139 19.6816 139 16C139 12.3184 136.008 9.3336 132.317 9.3336ZM132.317 12C134.532 12 136.327 13.7909 136.327 16C136.327 18.2091 134.532 20 132.317 20C130.103 20 128.308 18.2091 128.308 16C128.308 13.7909 130.103 12 132.317 12ZM82.8274 9.3336V12H78.8451V22.6664H76.1723V12H72.1891V9.3336H82.8274ZM88.4666 9.3328L88.4682 9.3336V9.3352L94.0816 17.8224V9.3336H96.7544V22.6672H94.0816V22.6584L88.4682 14.1648V22.6672H85.7953V9.3336H88.4657L88.4666 9.3328Z" fill="#082925"/>
</svg>
